<mxfile host="app.diagrams.net" agent="Mozilla/5.0 (X11; Linux x86_64) AppleWebKit/537.36 (KHTML, like Gecko) Chrome/126.0.0.0 Safari/537.36" version="24.7.6">
  <diagram name="PÃ¡gina-1" id="xVT-u2M1opb2-3hWfFBO">
    <mxGraphModel dx="713" dy="589" grid="1" gridSize="10" guides="1" tooltips="1" connect="1" arrows="1" fold="1" page="1" pageScale="1" pageWidth="827" pageHeight="1169" math="0" shadow="0">
      <root>
        <mxCell id="0" />
        <mxCell id="1" parent="0" />
        <mxCell id="JstVnJ1uUPe2GPETUVGc-1" value="Notificacao" style="swimlane;fontStyle=0;childLayout=stackLayout;horizontal=1;startSize=30;horizontalStack=0;resizeParent=1;resizeParentMax=0;resizeLast=0;collapsible=1;marginBottom=0;whiteSpace=wrap;html=1;" vertex="1" parent="1">
          <mxGeometry x="302" y="50" width="140" height="60" as="geometry" />
        </mxCell>
        <mxCell id="JstVnJ1uUPe2GPETUVGc-2" value="enviar(): str" style="text;strokeColor=none;fillColor=none;align=left;verticalAlign=middle;spacingLeft=4;spacingRight=4;overflow=hidden;points=[[0,0.5],[1,0.5]];portConstraint=eastwest;rotatable=0;whiteSpace=wrap;html=1;" vertex="1" parent="JstVnJ1uUPe2GPETUVGc-1">
          <mxGeometry y="30" width="140" height="30" as="geometry" />
        </mxCell>
        <mxCell id="JstVnJ1uUPe2GPETUVGc-5" value="NotificacaoEmail" style="swimlane;fontStyle=0;childLayout=stackLayout;horizontal=1;startSize=30;horizontalStack=0;resizeParent=1;resizeParentMax=0;resizeLast=0;collapsible=1;marginBottom=0;whiteSpace=wrap;html=1;" vertex="1" parent="1">
          <mxGeometry x="162" y="200" width="140" height="60" as="geometry" />
        </mxCell>
        <mxCell id="JstVnJ1uUPe2GPETUVGc-6" value="enviar(): str" style="text;strokeColor=none;fillColor=none;align=left;verticalAlign=middle;spacingLeft=4;spacingRight=4;overflow=hidden;points=[[0,0.5],[1,0.5]];portConstraint=eastwest;rotatable=0;whiteSpace=wrap;html=1;" vertex="1" parent="JstVnJ1uUPe2GPETUVGc-5">
          <mxGeometry y="30" width="140" height="30" as="geometry" />
        </mxCell>
        <mxCell id="JstVnJ1uUPe2GPETUVGc-9" value="NotificacaoSMS" style="swimlane;fontStyle=0;childLayout=stackLayout;horizontal=1;startSize=30;horizontalStack=0;resizeParent=1;resizeParentMax=0;resizeLast=0;collapsible=1;marginBottom=0;whiteSpace=wrap;html=1;" vertex="1" parent="1">
          <mxGeometry x="432" y="200" width="140" height="60" as="geometry" />
        </mxCell>
        <mxCell id="JstVnJ1uUPe2GPETUVGc-10" value="enviar(): str" style="text;strokeColor=none;fillColor=none;align=left;verticalAlign=middle;spacingLeft=4;spacingRight=4;overflow=hidden;points=[[0,0.5],[1,0.5]];portConstraint=eastwest;rotatable=0;whiteSpace=wrap;html=1;" vertex="1" parent="JstVnJ1uUPe2GPETUVGc-9">
          <mxGeometry y="30" width="140" height="30" as="geometry" />
        </mxCell>
        <mxCell id="JstVnJ1uUPe2GPETUVGc-13" value="CriadorNotificacao" style="swimlane;fontStyle=0;childLayout=stackLayout;horizontal=1;startSize=30;horizontalStack=0;resizeParent=1;resizeParentMax=0;resizeLast=0;collapsible=1;marginBottom=0;whiteSpace=wrap;html=1;" vertex="1" parent="1">
          <mxGeometry x="302" y="330" width="200" height="90" as="geometry" />
        </mxCell>
        <mxCell id="JstVnJ1uUPe2GPETUVGc-14" value="criar_notificacao(): Notificacao" style="text;strokeColor=none;fillColor=none;align=left;verticalAlign=middle;spacingLeft=4;spacingRight=4;overflow=hidden;points=[[0,0.5],[1,0.5]];portConstraint=eastwest;rotatable=0;whiteSpace=wrap;html=1;" vertex="1" parent="JstVnJ1uUPe2GPETUVGc-13">
          <mxGeometry y="30" width="200" height="30" as="geometry" />
        </mxCell>
        <mxCell id="JstVnJ1uUPe2GPETUVGc-15" value="enviar_notificacao(): str" style="text;strokeColor=none;fillColor=none;align=left;verticalAlign=middle;spacingLeft=4;spacingRight=4;overflow=hidden;points=[[0,0.5],[1,0.5]];portConstraint=eastwest;rotatable=0;whiteSpace=wrap;html=1;" vertex="1" parent="JstVnJ1uUPe2GPETUVGc-13">
          <mxGeometry y="60" width="200" height="30" as="geometry" />
        </mxCell>
        <mxCell id="JstVnJ1uUPe2GPETUVGc-17" value="CriadorEmail" style="swimlane;fontStyle=0;childLayout=stackLayout;horizontal=1;startSize=30;horizontalStack=0;resizeParent=1;resizeParentMax=0;resizeLast=0;collapsible=1;marginBottom=0;whiteSpace=wrap;html=1;" vertex="1" parent="1">
          <mxGeometry x="162" y="550" width="190" height="60" as="geometry" />
        </mxCell>
        <mxCell id="JstVnJ1uUPe2GPETUVGc-18" value="criar_notificacao(): Notificacao" style="text;strokeColor=none;fillColor=none;align=left;verticalAlign=middle;spacingLeft=4;spacingRight=4;overflow=hidden;points=[[0,0.5],[1,0.5]];portConstraint=eastwest;rotatable=0;whiteSpace=wrap;html=1;" vertex="1" parent="JstVnJ1uUPe2GPETUVGc-17">
          <mxGeometry y="30" width="190" height="30" as="geometry" />
        </mxCell>
        <mxCell id="JstVnJ1uUPe2GPETUVGc-29" style="edgeStyle=orthogonalEdgeStyle;rounded=0;orthogonalLoop=1;jettySize=auto;html=1;" edge="1" parent="1" source="JstVnJ1uUPe2GPETUVGc-21">
          <mxGeometry relative="1" as="geometry">
            <mxPoint x="402" y="430" as="targetPoint" />
            <Array as="points">
              <mxPoint x="536" y="480" />
              <mxPoint x="403" y="480" />
            </Array>
          </mxGeometry>
        </mxCell>
        <mxCell id="JstVnJ1uUPe2GPETUVGc-21" value="CriadorSMS" style="swimlane;fontStyle=0;childLayout=stackLayout;horizontal=1;startSize=30;horizontalStack=0;resizeParent=1;resizeParentMax=0;resizeLast=0;collapsible=1;marginBottom=0;whiteSpace=wrap;html=1;" vertex="1" parent="1">
          <mxGeometry x="466" y="560" width="200" height="60" as="geometry" />
        </mxCell>
        <mxCell id="JstVnJ1uUPe2GPETUVGc-22" value="criar_notificacao(): Notificacao" style="text;strokeColor=none;fillColor=none;align=left;verticalAlign=middle;spacingLeft=4;spacingRight=4;overflow=hidden;points=[[0,0.5],[1,0.5]];portConstraint=eastwest;rotatable=0;whiteSpace=wrap;html=1;" vertex="1" parent="JstVnJ1uUPe2GPETUVGc-21">
          <mxGeometry y="30" width="200" height="30" as="geometry" />
        </mxCell>
        <mxCell id="JstVnJ1uUPe2GPETUVGc-25" style="edgeStyle=orthogonalEdgeStyle;rounded=0;orthogonalLoop=1;jettySize=auto;html=1;entryX=0.464;entryY=1;entryDx=0;entryDy=0;entryPerimeter=0;" edge="1" parent="1" source="JstVnJ1uUPe2GPETUVGc-9" target="JstVnJ1uUPe2GPETUVGc-2">
          <mxGeometry relative="1" as="geometry" />
        </mxCell>
        <mxCell id="JstVnJ1uUPe2GPETUVGc-26" style="edgeStyle=orthogonalEdgeStyle;rounded=0;orthogonalLoop=1;jettySize=auto;html=1;entryX=0.464;entryY=1.033;entryDx=0;entryDy=0;entryPerimeter=0;" edge="1" parent="1" source="JstVnJ1uUPe2GPETUVGc-5" target="JstVnJ1uUPe2GPETUVGc-2">
          <mxGeometry relative="1" as="geometry" />
        </mxCell>
        <mxCell id="JstVnJ1uUPe2GPETUVGc-27" value="Implementam de" style="text;html=1;align=center;verticalAlign=middle;whiteSpace=wrap;rounded=0;" vertex="1" parent="1">
          <mxGeometry x="312" y="160" width="110" height="30" as="geometry" />
        </mxCell>
        <mxCell id="JstVnJ1uUPe2GPETUVGc-28" style="edgeStyle=orthogonalEdgeStyle;rounded=0;orthogonalLoop=1;jettySize=auto;html=1;entryX=0.49;entryY=1.033;entryDx=0;entryDy=0;entryPerimeter=0;" edge="1" parent="1" source="JstVnJ1uUPe2GPETUVGc-17" target="JstVnJ1uUPe2GPETUVGc-15">
          <mxGeometry relative="1" as="geometry">
            <Array as="points">
              <mxPoint x="232" y="480" />
              <mxPoint x="400" y="480" />
            </Array>
          </mxGeometry>
        </mxCell>
        <mxCell id="JstVnJ1uUPe2GPETUVGc-30" value="Implementam de" style="text;html=1;align=center;verticalAlign=middle;whiteSpace=wrap;rounded=0;" vertex="1" parent="1">
          <mxGeometry x="342" y="490" width="110" height="30" as="geometry" />
        </mxCell>
      </root>
    </mxGraphModel>
  </diagram>
</mxfile>
